<svg xmlns="http://www.w3.org/2000/svg" viewBox="0 0 1200 500" font-family="'Courier New', monospace">
  <!-- ai-fdl-kit logo — pixel art with chromatic aberration -->
  <!-- Rendered entirely as <rect> so no font dependencies. -->

  <rect width="1200" height="500" fill="#000000"/>

  <!--
    Each letter is a 5-wide x 7-tall pixel grid. Cell size = 28px.
    Letter width = 5*28 = 140px. Gap = 32px. 6 letters + 5 gaps.
    Total word width = 6*140 + 5*32 = 840 + 160 = 1000.
    Center horizontally: (1200-1000)/2 = 100px left padding.
    Top of word: 110px.
  -->

  <!-- ─── Chromatic layer 1: cyan, shifted right ───────────── -->
  <g transform="translate(112,110)" fill="#00f0ff" opacity="0.9">
    <!-- F -->
    <g transform="translate(0,0)">
      <rect x="0" y="0" width="28" height="28"/><rect x="28" y="0" width="28" height="28"/><rect x="56" y="0" width="28" height="28"/><rect x="84" y="0" width="28" height="28"/><rect x="112" y="0" width="28" height="28"/>
      <rect x="0" y="28" width="28" height="28"/>
      <rect x="0" y="56" width="28" height="28"/>
      <rect x="0" y="84" width="28" height="28"/><rect x="28" y="84" width="28" height="28"/><rect x="56" y="84" width="28" height="28"/><rect x="84" y="84" width="28" height="28"/>
      <rect x="0" y="112" width="28" height="28"/>
      <rect x="0" y="140" width="28" height="28"/>
      <rect x="0" y="168" width="28" height="28"/>
    </g>
    <!-- D -->
    <g transform="translate(172,0)">
      <rect x="0" y="0" width="28" height="28"/><rect x="28" y="0" width="28" height="28"/><rect x="56" y="0" width="28" height="28"/><rect x="84" y="0" width="28" height="28"/>
      <rect x="0" y="28" width="28" height="28"/><rect x="112" y="28" width="28" height="28"/>
      <rect x="0" y="56" width="28" height="28"/><rect x="112" y="56" width="28" height="28"/>
      <rect x="0" y="84" width="28" height="28"/><rect x="112" y="84" width="28" height="28"/>
      <rect x="0" y="112" width="28" height="28"/><rect x="112" y="112" width="28" height="28"/>
      <rect x="0" y="140" width="28" height="28"/><rect x="112" y="140" width="28" height="28"/>
      <rect x="0" y="168" width="28" height="28"/><rect x="28" y="168" width="28" height="28"/><rect x="56" y="168" width="28" height="28"/><rect x="84" y="168" width="28" height="28"/>
    </g>
    <!-- L -->
    <g transform="translate(344,0)">
      <rect x="0" y="0" width="28" height="28"/>
      <rect x="0" y="28" width="28" height="28"/>
      <rect x="0" y="56" width="28" height="28"/>
      <rect x="0" y="84" width="28" height="28"/>
      <rect x="0" y="112" width="28" height="28"/>
      <rect x="0" y="140" width="28" height="28"/>
      <rect x="0" y="168" width="28" height="28"/><rect x="28" y="168" width="28" height="28"/><rect x="56" y="168" width="28" height="28"/><rect x="84" y="168" width="28" height="28"/><rect x="112" y="168" width="28" height="28"/>
    </g>
    <!-- dash -->
    <g transform="translate(516,84)">
      <rect x="0" y="0" width="28" height="28"/><rect x="28" y="0" width="28" height="28"/><rect x="56" y="0" width="28" height="28"/><rect x="84" y="0" width="28" height="28"/>
    </g>
    <!-- K -->
    <g transform="translate(688,0)">
      <rect x="0" y="0" width="28" height="28"/><rect x="112" y="0" width="28" height="28"/>
      <rect x="0" y="28" width="28" height="28"/><rect x="84" y="28" width="28" height="28"/>
      <rect x="0" y="56" width="28" height="28"/><rect x="56" y="56" width="28" height="28"/>
      <rect x="0" y="84" width="28" height="28"/><rect x="28" y="84" width="28" height="28"/>
      <rect x="0" y="112" width="28" height="28"/><rect x="56" y="112" width="28" height="28"/>
      <rect x="0" y="140" width="28" height="28"/><rect x="84" y="140" width="28" height="28"/>
      <rect x="0" y="168" width="28" height="28"/><rect x="112" y="168" width="28" height="28"/>
    </g>
    <!-- I -->
    <g transform="translate(860,0)">
      <rect x="0" y="0" width="28" height="28"/><rect x="28" y="0" width="28" height="28"/><rect x="56" y="0" width="28" height="28"/>
      <rect x="28" y="28" width="28" height="28"/>
      <rect x="28" y="56" width="28" height="28"/>
      <rect x="28" y="84" width="28" height="28"/>
      <rect x="28" y="112" width="28" height="28"/>
      <rect x="28" y="140" width="28" height="28"/>
      <rect x="0" y="168" width="28" height="28"/><rect x="28" y="168" width="28" height="28"/><rect x="56" y="168" width="28" height="28"/>
    </g>
    <!-- T (only 3 wide for visual balance) -->
    <g transform="translate(976,0)">
      <rect x="0" y="0" width="28" height="28"/><rect x="28" y="0" width="28" height="28"/><rect x="56" y="0" width="28" height="28"/><rect x="84" y="0" width="28" height="28"/><rect x="112" y="0" width="28" height="28"/>
      <rect x="56" y="28" width="28" height="28"/>
      <rect x="56" y="56" width="28" height="28"/>
      <rect x="56" y="84" width="28" height="28"/>
      <rect x="56" y="112" width="28" height="28"/>
      <rect x="56" y="140" width="28" height="28"/>
      <rect x="56" y="168" width="28" height="28"/>
    </g>
  </g>

  <!-- ─── Chromatic layer 2: magenta, shifted left ───────────── -->
  <g transform="translate(88,110)" fill="#ff0080" opacity="0.9">
    <g transform="translate(0,0)">
      <rect x="0" y="0" width="28" height="28"/><rect x="28" y="0" width="28" height="28"/><rect x="56" y="0" width="28" height="28"/><rect x="84" y="0" width="28" height="28"/><rect x="112" y="0" width="28" height="28"/>
      <rect x="0" y="28" width="28" height="28"/>
      <rect x="0" y="56" width="28" height="28"/>
      <rect x="0" y="84" width="28" height="28"/><rect x="28" y="84" width="28" height="28"/><rect x="56" y="84" width="28" height="28"/><rect x="84" y="84" width="28" height="28"/>
      <rect x="0" y="112" width="28" height="28"/>
      <rect x="0" y="140" width="28" height="28"/>
      <rect x="0" y="168" width="28" height="28"/>
    </g>
    <g transform="translate(172,0)">
      <rect x="0" y="0" width="28" height="28"/><rect x="28" y="0" width="28" height="28"/><rect x="56" y="0" width="28" height="28"/><rect x="84" y="0" width="28" height="28"/>
      <rect x="0" y="28" width="28" height="28"/><rect x="112" y="28" width="28" height="28"/>
      <rect x="0" y="56" width="28" height="28"/><rect x="112" y="56" width="28" height="28"/>
      <rect x="0" y="84" width="28" height="28"/><rect x="112" y="84" width="28" height="28"/>
      <rect x="0" y="112" width="28" height="28"/><rect x="112" y="112" width="28" height="28"/>
      <rect x="0" y="140" width="28" height="28"/><rect x="112" y="140" width="28" height="28"/>
      <rect x="0" y="168" width="28" height="28"/><rect x="28" y="168" width="28" height="28"/><rect x="56" y="168" width="28" height="28"/><rect x="84" y="168" width="28" height="28"/>
    </g>
    <g transform="translate(344,0)">
      <rect x="0" y="0" width="28" height="28"/>
      <rect x="0" y="28" width="28" height="28"/>
      <rect x="0" y="56" width="28" height="28"/>
      <rect x="0" y="84" width="28" height="28"/>
      <rect x="0" y="112" width="28" height="28"/>
      <rect x="0" y="140" width="28" height="28"/>
      <rect x="0" y="168" width="28" height="28"/><rect x="28" y="168" width="28" height="28"/><rect x="56" y="168" width="28" height="28"/><rect x="84" y="168" width="28" height="28"/><rect x="112" y="168" width="28" height="28"/>
    </g>
    <g transform="translate(516,84)">
      <rect x="0" y="0" width="28" height="28"/><rect x="28" y="0" width="28" height="28"/><rect x="56" y="0" width="28" height="28"/><rect x="84" y="0" width="28" height="28"/>
    </g>
    <g transform="translate(688,0)">
      <rect x="0" y="0" width="28" height="28"/><rect x="112" y="0" width="28" height="28"/>
      <rect x="0" y="28" width="28" height="28"/><rect x="84" y="28" width="28" height="28"/>
      <rect x="0" y="56" width="28" height="28"/><rect x="56" y="56" width="28" height="28"/>
      <rect x="0" y="84" width="28" height="28"/><rect x="28" y="84" width="28" height="28"/>
      <rect x="0" y="112" width="28" height="28"/><rect x="56" y="112" width="28" height="28"/>
      <rect x="0" y="140" width="28" height="28"/><rect x="84" y="140" width="28" height="28"/>
      <rect x="0" y="168" width="28" height="28"/><rect x="112" y="168" width="28" height="28"/>
    </g>
    <g transform="translate(860,0)">
      <rect x="0" y="0" width="28" height="28"/><rect x="28" y="0" width="28" height="28"/><rect x="56" y="0" width="28" height="28"/>
      <rect x="28" y="28" width="28" height="28"/>
      <rect x="28" y="56" width="28" height="28"/>
      <rect x="28" y="84" width="28" height="28"/>
      <rect x="28" y="112" width="28" height="28"/>
      <rect x="28" y="140" width="28" height="28"/>
      <rect x="0" y="168" width="28" height="28"/><rect x="28" y="168" width="28" height="28"/><rect x="56" y="168" width="28" height="28"/>
    </g>
    <g transform="translate(976,0)">
      <rect x="0" y="0" width="28" height="28"/><rect x="28" y="0" width="28" height="28"/><rect x="56" y="0" width="28" height="28"/><rect x="84" y="0" width="28" height="28"/><rect x="112" y="0" width="28" height="28"/>
      <rect x="56" y="28" width="28" height="28"/>
      <rect x="56" y="56" width="28" height="28"/>
      <rect x="56" y="84" width="28" height="28"/>
      <rect x="56" y="112" width="28" height="28"/>
      <rect x="56" y="140" width="28" height="28"/>
      <rect x="56" y="168" width="28" height="28"/>
    </g>
  </g>

  <!-- ─── White center layer ───────────── -->
  <g transform="translate(100,110)" fill="#ffffff">
    <g transform="translate(0,0)">
      <rect x="0" y="0" width="28" height="28"/><rect x="28" y="0" width="28" height="28"/><rect x="56" y="0" width="28" height="28"/><rect x="84" y="0" width="28" height="28"/><rect x="112" y="0" width="28" height="28"/>
      <rect x="0" y="28" width="28" height="28"/>
      <rect x="0" y="56" width="28" height="28"/>
      <rect x="0" y="84" width="28" height="28"/><rect x="28" y="84" width="28" height="28"/><rect x="56" y="84" width="28" height="28"/><rect x="84" y="84" width="28" height="28"/>
      <rect x="0" y="112" width="28" height="28"/>
      <rect x="0" y="140" width="28" height="28"/>
      <rect x="0" y="168" width="28" height="28"/>
    </g>
    <g transform="translate(172,0)">
      <rect x="0" y="0" width="28" height="28"/><rect x="28" y="0" width="28" height="28"/><rect x="56" y="0" width="28" height="28"/><rect x="84" y="0" width="28" height="28"/>
      <rect x="0" y="28" width="28" height="28"/><rect x="112" y="28" width="28" height="28"/>
      <rect x="0" y="56" width="28" height="28"/><rect x="112" y="56" width="28" height="28"/>
      <rect x="0" y="84" width="28" height="28"/><rect x="112" y="84" width="28" height="28"/>
      <rect x="0" y="112" width="28" height="28"/><rect x="112" y="112" width="28" height="28"/>
      <rect x="0" y="140" width="28" height="28"/><rect x="112" y="140" width="28" height="28"/>
      <rect x="0" y="168" width="28" height="28"/><rect x="28" y="168" width="28" height="28"/><rect x="56" y="168" width="28" height="28"/><rect x="84" y="168" width="28" height="28"/>
    </g>
    <g transform="translate(344,0)">
      <rect x="0" y="0" width="28" height="28"/>
      <rect x="0" y="28" width="28" height="28"/>
      <rect x="0" y="56" width="28" height="28"/>
      <rect x="0" y="84" width="28" height="28"/>
      <rect x="0" y="112" width="28" height="28"/>
      <rect x="0" y="140" width="28" height="28"/>
      <rect x="0" y="168" width="28" height="28"/><rect x="28" y="168" width="28" height="28"/><rect x="56" y="168" width="28" height="28"/><rect x="84" y="168" width="28" height="28"/><rect x="112" y="168" width="28" height="28"/>
    </g>
    <g transform="translate(516,84)">
      <rect x="0" y="0" width="28" height="28"/><rect x="28" y="0" width="28" height="28"/><rect x="56" y="0" width="28" height="28"/><rect x="84" y="0" width="28" height="28"/>
    </g>
    <g transform="translate(688,0)">
      <rect x="0" y="0" width="28" height="28"/><rect x="112" y="0" width="28" height="28"/>
      <rect x="0" y="28" width="28" height="28"/><rect x="84" y="28" width="28" height="28"/>
      <rect x="0" y="56" width="28" height="28"/><rect x="56" y="56" width="28" height="28"/>
      <rect x="0" y="84" width="28" height="28"/><rect x="28" y="84" width="28" height="28"/>
      <rect x="0" y="112" width="28" height="28"/><rect x="56" y="112" width="28" height="28"/>
      <rect x="0" y="140" width="28" height="28"/><rect x="84" y="140" width="28" height="28"/>
      <rect x="0" y="168" width="28" height="28"/><rect x="112" y="168" width="28" height="28"/>
    </g>
    <g transform="translate(860,0)">
      <rect x="0" y="0" width="28" height="28"/><rect x="28" y="0" width="28" height="28"/><rect x="56" y="0" width="28" height="28"/>
      <rect x="28" y="28" width="28" height="28"/>
      <rect x="28" y="56" width="28" height="28"/>
      <rect x="28" y="84" width="28" height="28"/>
      <rect x="28" y="112" width="28" height="28"/>
      <rect x="28" y="140" width="28" height="28"/>
      <rect x="0" y="168" width="28" height="28"/><rect x="28" y="168" width="28" height="28"/><rect x="56" y="168" width="28" height="28"/>
    </g>
    <g transform="translate(976,0)">
      <rect x="0" y="0" width="28" height="28"/><rect x="28" y="0" width="28" height="28"/><rect x="56" y="0" width="28" height="28"/><rect x="84" y="0" width="28" height="28"/><rect x="112" y="0" width="28" height="28"/>
      <rect x="56" y="28" width="28" height="28"/>
      <rect x="56" y="56" width="28" height="28"/>
      <rect x="56" y="84" width="28" height="28"/>
      <rect x="56" y="112" width="28" height="28"/>
      <rect x="56" y="140" width="28" height="28"/>
      <rect x="56" y="168" width="28" height="28"/>
    </g>
  </g>

  <!-- ─── Tagline ───────────── -->
  <text x="600" y="420" fill="#ffffff" font-size="36" font-weight="bold"
        text-anchor="middle" letter-spacing="4"
        font-family="'Courier New', 'Lucida Console', monospace">
    THE AI FEATURE DEFINITION KIT
  </text>
</svg>
